<svg width="109" height="89" viewBox="0 0 109 89" fill="none" xmlns="http://www.w3.org/2000/svg">
<path d="M10.9291 42.5301L33.3413 6.12L26.1773 0L3.5867 36.6978L0 42.5301L5.46455 51.4057L28.6091 89L35.7637 82.88L10.9291 42.5301Z" fill="#5193D0"/>
<path d="M98.0709 42.5301L75.6681 6.12L82.8228 0L105.423 36.6978L109 42.5301L103.535 51.4057L80.4003 89L73.2363 82.88L98.0709 42.5301Z" fill="#5193D0"/>
<path d="M68.845 12.4533L47.9727 8.06519L47.2884 12.5868L68.1608 16.9748L68.845 12.4533Z" fill="#5193D0"/>
<path d="M52.2419 43.681C51.087 43.0944 50.2795 41.7443 50.2795 40.1617C50.2795 38.0479 51.7349 36.3326 53.5282 36.3326C55.3216 36.3326 56.7769 38.0479 56.7769 40.1617C56.7769 42.2312 55.3779 43.9134 53.6409 43.9798L47.0684 83.9313L70.6073 43.5703L67.9689 19.0018L57.2557 16.8216L47.0966 14.5972L36.4773 36.3547L45.6694 83.6436L52.2419 43.681Z" fill="#5193D0"/>
</svg>
